<svg width="64" height="64" viewBox="0 0 64 64" fill="none" xmlns="http://www.w3.org/2000/svg">
<path d="M0 20C0 8.95431 8.95431 0 20 0H44C55.0457 0 64 8.95431 64 20V44C64 55.0457 55.0457 64 44 64H20C8.95431 64 0 55.0457 0 44V20Z" fill="#FBF9FF"/>
<path d="M5.58239 18.8182H11.3864L19.1591 37.7898H19.4659L27.2386 18.8182H33.0426V45H28.4915V27.0128H28.2486L21.0128 44.9233H17.6122L10.3764 26.9744H10.1335V45H5.58239V18.8182ZM60.6179 27.652H55.8366C55.7003 26.8679 55.4489 26.1733 55.0824 25.5682C54.7159 24.9545 54.2599 24.4347 53.7145 24.0085C53.169 23.5824 52.5469 23.2628 51.848 23.0497C51.1577 22.8281 50.4119 22.7173 49.6108 22.7173C48.1875 22.7173 46.9261 23.0753 45.8267 23.7912C44.7273 24.4986 43.8665 25.5384 43.2443 26.9105C42.6222 28.2741 42.3111 29.9403 42.3111 31.9091C42.3111 33.9119 42.6222 35.5994 43.2443 36.9716C43.875 38.3352 44.7358 39.3665 45.8267 40.0653C46.9261 40.7557 48.1832 41.1009 49.598 41.1009C50.3821 41.1009 51.1151 40.9986 51.7969 40.794C52.4872 40.581 53.1051 40.2699 53.6506 39.8608C54.2045 39.4517 54.669 38.9489 55.044 38.3523C55.4276 37.7557 55.6918 37.0739 55.8366 36.3068L60.6179 36.3324C60.4389 37.5767 60.0511 38.7443 59.4545 39.8352C58.8665 40.9261 58.0952 41.8892 57.1406 42.7244C56.1861 43.5511 55.0696 44.1989 53.7912 44.6676C52.5128 45.1278 51.0938 45.358 49.5341 45.358C47.233 45.358 45.179 44.8253 43.3722 43.7599C41.5653 42.6946 40.142 41.1562 39.1023 39.1449C38.0625 37.1335 37.5426 34.7216 37.5426 31.9091C37.5426 29.0881 38.0668 26.6761 39.1151 24.6733C40.1634 22.6619 41.5909 21.1236 43.3977 20.0582C45.2045 18.9929 47.25 18.4602 49.5341 18.4602C50.9915 18.4602 52.3466 18.6648 53.5994 19.0739C54.8523 19.483 55.9688 20.0838 56.9489 20.8764C57.929 21.6605 58.7344 22.6236 59.3651 23.7656C60.0043 24.8991 60.4219 26.1946 60.6179 27.652Z" fill="#52B788"/>
</svg>
